<svg width="345" height="345" viewBox="0 0 345 345" fill="none" xmlns="http://www.w3.org/2000/svg">
<path d="M321.282 258.262C323.683 254.103 325.175 249.417 325.175 245.209V99.14C325.175 94.932 323.685 90.247 321.283 86.088L172.175 172.175L321.282 258.262Z" fill="#9C0000"/>
<path d="M185.425 341.193L311.925 268.159C315.569 266.055 318.881 262.422 321.282 258.262L172.175 172.175L23.068 258.263C25.469 262.422 28.782 266.056 32.425 268.159L158.925 341.193C166.212 345.401 178.138 345.401 185.425 341.193Z" fill="#820000"/>
<path d="M321.283 86.087C318.881 81.927 315.568 78.294 311.925 76.19L185.425 3.156C178.138 -1.052 166.212 -1.052 158.925 3.156L32.425 76.19C25.137 80.397 19.175 90.725 19.175 99.14V245.209C19.175 249.417 20.666 254.103 23.068 258.262L172.175 172.175L321.283 86.087Z" fill="#D26565"/>
<path d="M274.175 166.508H262.841V155.175H251.509V166.508H240.175V177.841H251.509V189.175H262.841V177.841H274.175V166.508Z" fill="white"/>
<path d="M316.675 166.508H305.341V155.175H294.009V166.508H282.675V177.841H294.009V189.175H305.341V177.841H316.675V166.508Z" fill="white"/>
<path d="M43 94H83.8919L127.081 199.369H128.919L172.108 94H213V250.829H180.838V148.752H179.536L138.95 250.063H117.05L76.464 148.369H75.1622V250.829H43V94Z" fill="white"/>
</svg>
