<svg width="345" height="345" viewBox="0 0 345 345" fill="none" xmlns="http://www.w3.org/2000/svg">
<path d="M321.282 258.262C323.683 254.103 325.175 249.417 325.175 245.209V99.14C325.175 94.932 323.685 90.247 321.283 86.088L172.175 172.175L321.282 258.262Z" fill="#9C0000"/>
<path d="M185.425 341.193L311.925 268.159C315.569 266.055 318.881 262.422 321.282 258.262L172.175 172.175L23.068 258.263C25.469 262.422 28.782 266.056 32.425 268.159L158.925 341.193C166.212 345.401 178.138 345.401 185.425 341.193Z" fill="#820000"/>
<path d="M321.283 86.087C318.881 81.927 315.568 78.294 311.925 76.19L185.425 3.156C178.138 -1.052 166.212 -1.052 158.925 3.156L32.425 76.19C25.137 80.397 19.175 90.725 19.175 99.14V245.209C19.175 249.417 20.666 254.103 23.068 258.262L172.175 172.175L321.283 86.087Z" fill="#D26565"/>
<path d="M35 212V132H65C71.1458 132 76.3021 133.146 80.4688 135.438C84.6615 137.729 87.8255 140.88 89.9609 144.891C92.1224 148.875 93.2031 153.406 93.2031 158.484C93.2031 163.615 92.1224 168.172 89.9609 172.156C87.7995 176.141 84.6094 179.279 80.3906 181.57C76.1719 183.836 70.9766 184.969 64.8047 184.969H44.9219V173.055H62.8516C66.4453 173.055 69.388 172.43 71.6797 171.18C73.9714 169.93 75.6641 168.211 76.7578 166.023C77.8776 163.836 78.4375 161.323 78.4375 158.484C78.4375 155.646 77.8776 153.146 76.7578 150.984C75.6641 148.823 73.9583 147.143 71.6406 145.945C69.349 144.721 66.3932 144.109 62.7734 144.109H49.4922V212H35Z" fill="white"/>
<path d="M105.791 212V132H120.283V199.852H155.518V212H105.791Z" fill="white"/>
<path d="M181.377 212H165.908L194.072 132H211.963L240.166 212H224.697L203.33 148.406H202.705L181.377 212ZM181.885 180.633H224.072V192.273H181.885V180.633Z" fill="white"/>
<path d="M237.07 132H253.438L273.008 167.391H273.789L293.359 132H309.727L280.625 182.156V212H266.172V182.156L237.07 132Z" fill="white"/>
</svg>
