<svg width="2222" height="2500" viewBox="0 0 2222 2500" fill="none" xmlns="http://www.w3.org/2000/svg">
<path d="M2218.26 735.343C2218.24 693.42 2209.28 656.375 2191.14 624.582C2173.33 593.317 2146.66 567.113 2110.88 546.395C1815.56 376.108 1519.94 206.342 1224.71 35.8818C1145.12 -10.0685 1067.95 -8.39327 988.946 38.2166C871.397 107.541 282.871 444.721 107.498 546.299C35.2743 588.11 0.130195 652.096 0.112836 735.265C0 1077.72 0.112836 1420.17 0 1762.64C0.0173594 1803.64 8.60157 1839.96 25.9349 1871.28C43.7543 1903.49 70.8002 1930.41 107.402 1951.6C282.784 2053.18 871.389 2390.33 988.911 2459.68C1067.95 2506.31 1145.12 2507.98 1224.74 2462.01C1519.98 2291.54 1815.61 2121.78 2110.98 1951.5C2147.58 1930.32 2174.63 1903.38 2192.45 1871.19C2209.75 1839.88 2218.35 1803.55 2218.37 1762.54C2218.37 1762.54 2218.37 1077.81 2218.26 735.343Z" fill="#BC5C5C"/>
<path d="M1112.58 1245.61L25.9349 1871.28C43.7543 1903.49 70.8002 1930.41 107.402 1951.6C282.784 2053.18 871.389 2390.33 988.912 2459.68C1067.95 2506.31 1145.12 2507.98 1224.74 2462.01C1519.98 2291.54 1815.61 2121.78 2110.98 1951.5C2147.58 1930.32 2174.63 1903.38 2192.45 1871.19L1112.58 1245.61Z" fill="#741A1A"/>
<path d="M790.728 1430.94C853.96 1541.33 972.828 1615.78 1109.19 1615.78C1246.39 1615.78 1365.93 1540.38 1428.84 1428.82L1112.58 1245.61L790.728 1430.94Z" fill="#741A1A"/>
<path d="M2218.26 735.343C2218.24 693.42 2209.28 656.375 2191.14 624.582L1112.58 1245.61L2192.45 1871.19C2209.75 1839.88 2218.35 1803.55 2218.37 1762.54C2218.37 1762.54 2218.37 1077.81 2218.26 735.343Z" fill="#8E1B1B"/>
<path d="M109 1535.89V965H334.234C377.534 965 414.423 973.27 444.9 989.809C475.377 1006.16 498.607 1028.93 514.589 1058.1C530.757 1087.09 538.841 1120.55 538.841 1158.46C538.841 1196.37 530.664 1229.82 514.31 1258.81C497.957 1287.8 474.262 1310.38 443.228 1326.55C412.379 1342.71 375.026 1350.8 331.168 1350.8H187.609V1254.07H311.655C334.885 1254.07 354.026 1250.07 369.079 1242.08C384.317 1233.91 395.653 1222.66 403.087 1208.35C410.706 1193.86 414.516 1177.23 414.516 1158.46C414.516 1139.5 410.706 1122.96 403.087 1108.84C395.653 1094.53 384.317 1083.47 369.079 1075.67C353.84 1067.67 334.513 1063.68 311.098 1063.68H229.701V1535.89H109Z" fill="white"/>
<path d="M617.241 1535.89V965H737.942V1436.38H982.689V1535.89H617.241Z" fill="white"/>
<path d="M1175.59 1535.89H1046.25L1243.33 965H1398.87L1595.67 1535.89H1466.33L1323.33 1095.46H1318.87L1175.59 1535.89ZM1167.5 1311.49H1473.02V1405.71H1167.5V1311.49Z" fill="white"/>
<path d="M1572.67 965H1707.87L1838.05 1210.86H1843.62L1973.8 965H2109L1900.77 1334.07V1535.89H1780.9V1334.07L1572.67 965Z" fill="white"/>
</svg>
